<svg aria-hidden="true" style="position: absolute; width: 0; height: 0; overflow: hidden;" version="1.1" xmlns="http://www.w3.org/2000/svg" xmlns:xlink="http://www.w3.org/1999/xlink">
<defs>
<symbol id="icon-eye" viewBox="0 0 32 32">
<path fill="#67717b" style="fill: var(--color1, #67717b)" d="M27.658 14.917c-2.104-3.096-6.19-7.61-11.658-7.61-5.469 0-9.554 4.514-11.658 7.61-0.147 0.207-0.235 0.466-0.235 0.745s0.088 0.537 0.238 0.749l-0.003-0.004c2.104 3.094 6.189 7.61 11.658 7.61s9.554-4.515 11.658-7.61c0.147-0.207 0.235-0.466 0.235-0.745s-0.088-0.537-0.238-0.749l0.003 0.004zM2.269 17.816c-0.419-0.602-0.669-1.349-0.669-2.154s0.25-1.552 0.678-2.167l-0.008 0.012c2.154-3.168 6.896-8.707 13.731-8.707s11.578 5.541 13.731 8.707c0.893 1.312 0.893 2.995 0 4.309-2.154 3.166-6.896 8.707-13.731 8.707s-11.578-5.541-13.731-8.707zM13.493 15.661c0 1.368 1.12 2.507 2.541 2.507s2.542-1.139 2.542-2.507-1.122-2.506-2.542-2.506c-1.419 0-2.541 1.138-2.541 2.506zM16.034 10.648c2.789 0 5.048 2.245 5.048 5.013s-2.259 5.013-5.048 5.013c-2.787 0-5.048-2.243-5.048-5.013 0-2.768 2.261-5.013 5.048-5.013z"></path>
</symbol>
<symbol id="icon-github" viewBox="0 0 37 32">
<path d="M18.667 0c-9.355 0-16.942 7.344-16.942 16.405 0 7.248 4.855 13.397 11.588 15.566 0.846 0.153 1.156-0.356 1.156-0.789 0-0.391-0.014-1.684-0.021-3.054-4.713 0.992-5.707-1.936-5.707-1.936-0.772-1.895-1.883-2.4-1.883-2.4-1.538-1.017 0.116-0.996 0.116-0.996 1.701 0.114 2.597 1.689 2.597 1.689 1.511 2.507 3.964 1.783 4.93 1.364 0.153-1.060 0.592-1.783 1.076-2.194-3.762-0.414-7.717-1.82-7.717-8.107 0-1.792 0.661-3.253 1.744-4.404-0.176-0.412-0.756-2.082 0.165-4.341 0 0 1.422-0.441 4.66 1.682 1.272-0.348 2.732-0.549 4.239-0.551h0.001c1.509 0.002 2.971 0.203 4.361 0.578l-0.117-0.027c3.236-2.123 4.654-1.682 4.654-1.682 0.924 2.26 0.343 3.929 0.167 4.341 1.084 1.148 1.742 2.613 1.742 4.404 0 6.3-3.963 7.689-7.733 8.094 0.606 0.508 1.148 1.508 1.148 3.038 0 2.196-0.020 3.961-0.020 4.501 0 0.437 0.304 0.949 1.163 0.788 6.727-2.172 11.575-8.32 11.575-15.564 0.002-9.063-7.584-16.405-16.94-16.405zM8.071 23.369c-0.037 0.082-0.171 0.107-0.292 0.050-0.123-0.053-0.19-0.164-0.151-0.245 0.036-0.084 0.169-0.107 0.292-0.052 0.124 0.053 0.194 0.165 0.151 0.249zM8.905 24.089c-0.082 0.073-0.24 0.039-0.347-0.075-0.11-0.116-0.132-0.267-0.050-0.341 0.084-0.071 0.236-0.039 0.348 0.075 0.11 0.117 0.132 0.268 0.048 0.341zM9.476 25.010c-0.103 0.071-0.274 0.005-0.379-0.142-0.103-0.144-0.103-0.32 0.004-0.389 0.105-0.071 0.272-0.007 0.379 0.139 0.103 0.148 0.103 0.322-0.004 0.395zM10.443 26.076c-0.092 0.1-0.29 0.073-0.436-0.062-0.148-0.132-0.188-0.32-0.096-0.418 0.094-0.1 0.293-0.071 0.439 0.062 0.146 0.132 0.192 0.32 0.092 0.42zM11.692 26.437c-0.041 0.128-0.231 0.187-0.423 0.133-0.192-0.057-0.318-0.208-0.279-0.338 0.041-0.128 0.231-0.19 0.425-0.132 0.192 0.057 0.316 0.206 0.277 0.338zM13.115 26.59c0.004 0.135-0.16 0.249-0.359 0.249-0.203 0.005-0.366-0.103-0.37-0.236 0-0.137 0.16-0.249 0.363-0.251 0.201-0.005 0.366 0.105 0.366 0.238zM14.512 26.539c0.023 0.132-0.117 0.267-0.316 0.302-0.196 0.036-0.379-0.044-0.404-0.178s0.117-0.268 0.315-0.304c0.199-0.036 0.379 0.044 0.405 0.18z"></path>
</symbol>
<symbol id="icon-google" viewBox="0 0 32 32">
<path fill="#4285f4" style="fill: var(--color2, #4285f4)" d="M32 16.364c0-1.136-0.103-2.226-0.297-3.273h-15.378v6.188h8.788c-0.379 2-1.529 3.694-3.257 4.828v4.014h5.276c3.086-2.784 4.868-6.887 4.868-11.756z"></path>
<path fill="#34a853" style="fill: var(--color3, #34a853)" d="M16.327 32c4.409 0 8.103-1.433 10.805-3.876l-5.276-4.016c-1.463 0.96-3.333 1.529-5.529 1.529-4.252 0-7.852-2.816-9.136-6.597h-5.454v4.146c2.684 5.228 8.208 8.814 14.59 8.814z"></path>
<path fill="#fbbc05" style="fill: var(--color4, #fbbc05)" d="M7.191 19.040c-0.322-0.906-0.509-1.95-0.512-3.039v-0.001c0-1.054 0.185-2.080 0.512-3.040v-4.146h-5.454c-1.095 2.088-1.737 4.562-1.737 7.186s0.642 5.098 1.778 7.273l-0.041-0.087 5.454-4.146z"></path>
<path fill="#ea4335" style="fill: var(--color5, #ea4335)" d="M16.327 6.364c2.396 0 4.549 0.807 6.24 2.391l4.683-4.587c-2.827-2.585-6.521-4.169-10.923-4.169-6.382 0-11.904 3.586-14.59 8.814l5.454 4.146c1.284-3.781 4.884-6.596 9.136-6.596z"></path>
</symbol>
<symbol id="icon-qencode" viewBox="0 0 179 32">
<path fill="#316fea" style="fill: var(--color6, #316fea)" d="M0 16.077c0-8.811 6.35-15.767 16.029-15.767s16.028 6.957 16.028 15.768c0 3.17-0.852 6.107-2.245 8.503l2.71 2.319-4.414 5.1-2.942-2.628c-2.478 1.546-5.576 2.473-9.060 2.473-9.757 0.078-16.106-6.801-16.106-15.768zM7.743 16.077c0 5.102 3.407 8.89 8.208 8.89 1.162 0 2.323-0.233 3.252-0.62l-2.555-2.24 4.336-5.025 2.633 2.319c0.31-1.005 0.542-2.087 0.542-3.246 0-5.025-3.33-8.812-8.208-8.812s-8.208 3.71-8.208 8.734zM41.967 21.952c0.155 2.010 2.168 3.787 4.8 3.787 2.711 0 4.337-1.778 4.802-2.473l4.8 3.71c-0.619 1.314-3.793 5.024-9.755 5.024-7.51 0-12.157-5.179-12.157-11.903 0-6.725 4.569-12.058 11.228-12.058 7.279 0 11.228 4.637 11.228 12.444 0 0.464 0 0.928-0.078 1.469h-14.868zM42.199 17.392h7.434c-0.078-1.856-1.471-3.402-3.717-3.402-2.4 0-3.562 1.778-3.717 3.401zM72.32 18.396c0-2.164-1.24-3.246-3.020-3.246-2.014 0-3.175 1.468-3.175 3.246v13.604h-7.279v-22.802h7.124v2.319c0.852-1.314 2.865-2.937 5.73-2.937 7.124 0 7.82 6.106 7.82 10.744v12.676h-7.278v-13.604h0.077zM98.645 24.039l1.936 5.951c-1.549 1.083-3.872 2.010-6.737 2.010-7.279 0-12.39-4.947-12.39-11.98s5.344-11.981 12.39-11.981c2.943 0 5.188 0.927 6.814 2.087l-1.936 6.106c-1.213-1.056-2.809-1.7-4.556-1.7-0.004 0-0.008 0-0.013 0h0.001c-3.407 0-5.343 2.395-5.343 5.41 0 3.324 2.245 5.642 5.653 5.642 1.548 0.078 3.174-0.695 4.18-1.545zM114.983 8.039c7.356 0 12.544 5.024 12.544 11.98 0 6.88-5.343 11.981-12.544 11.981-7.279 0-12.39-5.024-12.39-11.903-0.077-6.957 5.266-12.058 12.39-12.058zM114.983 25.584c3.020 0 5.265-2.318 5.265-5.642s-2.323-5.565-5.265-5.565c-3.020 0-5.111 2.319-5.111 5.642-0.077 3.324 2.091 5.566 5.111 5.566zM146.883 29.681c-0.619 0.773-2.865 2.319-6.194 2.319-6.582 0-11.228-4.947-11.228-11.98 0-7.112 4.181-11.981 10.841-11.981 3.484 0 5.652 1.777 6.117 2.319v-10.358h7.279v31.459h-6.815v-1.779zM141.695 14.377c-2.942 0-4.955 2.319-4.955 5.642 0 3.401 2.013 5.566 4.955 5.566 3.175 0 4.956-2.551 4.956-5.566-0.077-3.555-2.091-5.642-4.956-5.642zM163.143 21.952c0.155 2.010 2.168 3.787 4.801 3.787 2.71 0 4.336-1.778 4.801-2.473l4.8 3.71c-0.619 1.314-3.794 5.024-9.756 5.024-7.511 0-12.157-5.179-12.157-11.903 0-6.725 4.568-12.058 11.228-12.058 7.278 0 11.227 4.637 11.227 12.444 0 0.464 0 0.928-0.077 1.469h-14.867zM163.375 17.392h7.434c-0.078-1.856-1.471-3.402-3.717-3.402-2.4 0-3.562 1.778-3.717 3.401z"></path>
</symbol>
</defs>
</svg>
